<svg width="24" height="24" viewBox="0 0 24 24" fill="none" xmlns="http://www.w3.org/2000/svg">
<path d="M17.9371 5.5604C18.2056 5.82889 18.2281 6.25023 18.0044 6.54425L17.9373 6.62107L12.8115 11.7485L17.9402 16.8773C18.2331 17.1702 18.2331 17.645 17.9402 17.9379C17.6718 18.2064 17.2504 18.2288 16.9564 18.005L16.8796 17.9379L11.7509 12.8092L6.62642 17.9366C6.33359 18.2295 5.85866 18.2297 5.56576 17.9368C5.29728 17.6683 5.27476 17.2469 5.49844 16.9529L5.56555 16.8761L10.6902 11.7485L5.5644 6.62273C5.2715 6.32984 5.2715 5.85496 5.5644 5.56207C5.83288 5.29359 6.25428 5.27121 6.54825 5.49495L6.62506 5.56207L11.7509 10.6879L16.8764 5.56062C17.1693 5.26767 17.6442 5.26751 17.9371 5.5604Z" fill="#6B778C"/>
</svg>
