<svg width="24" height="24" viewBox="0 0 24 24" fill="none" xmlns="http://www.w3.org/2000/svg">
<path d="M17.9376 5.5604C18.2061 5.82889 18.2286 6.25023 18.0049 6.54425L17.9378 6.62107L12.812 11.7485L17.9407 16.8773C18.2336 17.1702 18.2336 17.645 17.9407 17.9379C17.6722 18.2064 17.2508 18.2288 16.9569 18.005L16.8801 17.9379L11.7514 12.8092L6.62691 17.9366C6.33408 18.2295 5.85915 18.2297 5.56625 17.9368C5.29777 17.6683 5.27525 17.2469 5.49893 16.9529L5.56604 16.8761L10.6907 11.7485L5.56488 6.62273C5.27199 6.32984 5.27199 5.85496 5.56488 5.56207C5.83337 5.29359 6.25477 5.27121 6.54874 5.49495L6.62554 5.56207L11.7514 10.6879L16.8769 5.56062C17.1698 5.26767 17.6447 5.26751 17.9376 5.5604Z" fill="#6B778C"/>
</svg>
