<svg width="16" height="16" viewBox="0 0 16 16" fill="none" xmlns="http://www.w3.org/2000/svg">
<path d="M1.83301 3.00293C2.08614 3.00293 2.29534 3.19103 2.32844 3.43508L2.33301 3.50293V12.502C2.33301 12.7782 2.10915 13.002 1.83301 13.002C1.57988 13.002 1.37068 12.8139 1.33757 12.5699L1.33301 12.502V3.50293C1.33301 3.22679 1.55687 3.00293 1.83301 3.00293ZM10.1395 4.25835L10.195 4.19555C10.4353 3.95526 10.8135 3.93681 11.075 4.14019L11.1378 4.19565L14.4689 7.52742C14.709 7.76763 14.7276 8.14553 14.5245 8.40705L14.4691 8.46985L11.1381 11.8055C10.8779 12.066 10.4558 12.0663 10.1953 11.8061C9.95477 11.566 9.93603 11.1878 10.1392 10.9262L10.1946 10.8633L12.387 8.66693L3.99967 8.66701C3.65778 8.66701 3.376 8.40965 3.33749 8.07809L3.33301 8.00034C3.33301 7.65845 3.59037 7.37667 3.92193 7.33816L3.99967 7.33367L12.389 7.3336L10.1949 5.13836C9.95459 4.89802 9.93614 4.51986 10.1395 4.25835L10.195 4.19555L10.1395 4.25835Z" fill="#172B4D"/>
</svg>
