<svg width="204" height="24" viewBox="0 0 204 24" fill="none" xmlns="http://www.w3.org/2000/svg">
<path d="M39.8359 14.2969C39.7214 15.5104 39.2734 16.4583 38.4922 17.1406C37.7109 17.8177 36.6719 18.1562 35.375 18.1562C34.4688 18.1562 33.6693 17.9427 32.9766 17.5156C32.2891 17.0833 31.7578 16.4714 31.3828 15.6797C31.0078 14.888 30.8125 13.9688 30.7969 12.9219V11.8594C30.7969 10.7865 30.987 9.84115 31.3672 9.02344C31.7474 8.20573 32.2917 7.57552 33 7.13281C33.7135 6.6901 34.5365 6.46875 35.4688 6.46875C36.724 6.46875 37.7344 6.8099 38.5 7.49219C39.2656 8.17448 39.7109 9.13802 39.8359 10.3828H37.8672C37.7734 9.5651 37.5339 8.97656 37.1484 8.61719C36.7682 8.2526 36.2083 8.07031 35.4688 8.07031C34.6094 8.07031 33.9479 8.38542 33.4844 9.01562C33.026 9.64062 32.7917 10.5599 32.7812 11.7734V12.7812C32.7812 14.0104 33 14.9479 33.4375 15.5938C33.8802 16.2396 34.526 16.5625 35.375 16.5625C36.151 16.5625 36.7344 16.388 37.125 16.0391C37.5156 15.6901 37.763 15.1094 37.8672 14.2969H39.8359ZM48.0781 11.0547H45.3359V18H43.4375V11.0547H40.7266V9.54688H48.0781V11.0547ZM54.625 9.54688H56.5156V18H54.625V12.3594L51.3125 18H49.4219V9.54688H51.3125V15.1875L54.625 9.54688ZM65.7031 18H63.8047V11.0781H60.5078V18H58.6094V9.54688H65.7031V18ZM71.4453 18.1562C70.2422 18.1562 69.2656 17.7786 68.5156 17.0234C67.7708 16.263 67.3984 15.2526 67.3984 13.9922V13.7578C67.3984 12.9141 67.5599 12.1615 67.8828 11.5C68.2109 10.8333 68.6693 10.3151 69.2578 9.94531C69.8464 9.57552 70.5026 9.39062 71.2266 9.39062C72.3776 9.39062 73.2656 9.75781 73.8906 10.4922C74.5208 11.2266 74.8359 12.2656 74.8359 13.6094V14.375H69.3125C69.3698 15.0729 69.6016 15.625 70.0078 16.0312C70.4193 16.4375 70.9349 16.6406 71.5547 16.6406C72.4245 16.6406 73.1328 16.2891 73.6797 15.5859L74.7031 16.5625C74.3646 17.0677 73.9115 17.4609 73.3438 17.7422C72.7812 18.0182 72.1484 18.1562 71.4453 18.1562ZM71.2188 10.9141C70.6979 10.9141 70.276 11.0964 69.9531 11.4609C69.6354 11.8255 69.4323 12.3333 69.3438 12.9844H72.9609V12.8438C72.9193 12.2083 72.75 11.7292 72.4531 11.4062C72.1562 11.0781 71.7448 10.9141 71.2188 10.9141ZM83.4766 18H81.5781V14.5859H78.2891V18H76.3906V9.54688H78.2891V13.0703H81.5781V9.54688H83.4766V18ZM85.5391 16.4844C86.0651 15.8958 86.4167 15.3385 86.5938 14.8125C86.776 14.2812 86.8854 13.6042 86.9219 12.7812L87.0312 9.54688H92.8984V16.4844H94.0703V20.5156H92.1797V18H86.7578V20.5156H84.8359L84.8438 16.4844H85.5391ZM87.7656 16.4844H91.0078V11.1797H88.875L88.8203 12.7969C88.7474 14.349 88.3958 15.5781 87.7656 16.4844ZM100.562 9.54688H102.453V18H100.562V12.3594L97.25 18H95.3594V9.54688H97.25V15.1875L100.562 9.54688ZM109.75 9.54688H111.641V18H109.75V12.3594L106.438 18H104.547V9.54688H106.438V15.1875L109.75 9.54688ZM118.18 18.9766H116.688L121.164 6.625H122.656L118.18 18.9766ZM135.109 6.625H137.086V18H135.109V9.89844L130.117 18H128.141V6.625H130.117V14.7344L135.109 6.625ZM141.43 13.7734V18H139.453V6.625H143.805C145.076 6.625 146.083 6.95573 146.828 7.61719C147.578 8.27865 147.953 9.15365 147.953 10.2422C147.953 11.3568 147.586 12.224 146.852 12.8438C146.122 13.4635 145.099 13.7734 143.781 13.7734H141.43ZM141.43 12.1875H143.805C144.508 12.1875 145.044 12.0234 145.414 11.6953C145.784 11.362 145.969 10.8828 145.969 10.2578C145.969 9.64323 145.781 9.15365 145.406 8.78906C145.031 8.41927 144.516 8.22917 143.859 8.21875H141.43V12.1875ZM156.656 6.625H158.633V18H156.656V9.89844L151.664 18H149.688V6.625H151.664V14.7344L156.656 6.625ZM168.984 8.21875H165.438V18H163.477V8.21875H159.961V6.625H168.984V8.21875ZM171.859 13.9297H167.758V12.3984H171.859V13.9297ZM175.586 13.7734V18H173.609V6.625H177.961C179.232 6.625 180.24 6.95573 180.984 7.61719C181.734 8.27865 182.109 9.15365 182.109 10.2422C182.109 11.3568 181.742 12.224 181.008 12.8438C180.279 13.4635 179.255 13.7734 177.938 13.7734H175.586ZM175.586 12.1875H177.961C178.664 12.1875 179.201 12.0234 179.57 11.6953C179.94 11.362 180.125 10.8828 180.125 10.2578C180.125 9.64323 179.938 9.15365 179.562 8.78906C179.188 8.41927 178.672 8.22917 178.016 8.21875H175.586V12.1875ZM190.312 11.0547H187.57V18H185.672V11.0547H182.961V9.54688H190.312V11.0547ZM197.969 7.70312H198.141C199.016 7.70312 199.81 7.90104 200.523 8.29688C201.242 8.6875 201.799 9.23958 202.195 9.95312C202.596 10.6667 202.797 11.4688 202.797 12.3594C202.797 13.2448 202.596 14.0417 202.195 14.75C201.799 15.4531 201.247 16 200.539 16.3906C199.836 16.7812 199.047 16.9792 198.172 16.9844H197.969V18.4688H196.07V16.9844H195.883C195.003 16.9844 194.203 16.7891 193.484 16.3984C192.766 16.0026 192.208 15.4531 191.812 14.75C191.422 14.0469 191.227 13.2552 191.227 12.375C191.227 11.4844 191.424 10.6823 191.82 9.96875C192.216 9.25521 192.771 8.70052 193.484 8.30469C194.198 7.90365 194.997 7.70312 195.883 7.70312H196.07V6.15625H197.969V7.70312ZM195.883 9.28906C195.008 9.28906 194.323 9.5625 193.828 10.1094C193.339 10.6562 193.094 11.4115 193.094 12.375C193.094 13.3125 193.339 14.0521 193.828 14.5938C194.318 15.1302 195.01 15.3984 195.906 15.3984H196.07V9.28906H195.883ZM197.969 9.28906V15.3984H198.156C199.031 15.3984 199.711 15.125 200.195 14.5781C200.685 14.0312 200.93 13.2917 200.93 12.3594C200.93 11.4062 200.685 10.6562 200.195 10.1094C199.711 9.5625 199.023 9.28906 198.133 9.28906H197.969Z" fill="#172B4D"/>
<path d="M10.7475 2H13.253C14.4439 2 15.4187 2.92516 15.4978 4.09595L15.503 4.25L15.503 4.5H16.7454C18.5403 4.5 19.9954 5.95507 19.9954 7.75V19.7546C19.9954 20.9972 18.988 22.0046 17.7454 22.0046H6.25C5.00736 22.0046 4 20.9972 4 19.7546V7.75C4 5.95507 5.45507 4.5 7.25 4.5H8.497L8.49754 4.25C8.49754 3.05914 9.4227 2.08436 10.5935 2.00519L10.7475 2ZM15.2506 13.5H8.75228C7.83411 13.5 7.08109 14.2071 7.00808 15.1065L7.00228 15.25V17.2471C7.00228 18.1653 7.70939 18.9183 8.60875 18.9913L8.75228 18.9971H15.2506C16.1688 18.9971 16.9218 18.29 16.9948 17.3906L17.0006 17.2471V15.25C17.0006 14.3318 16.2935 13.5788 15.3941 13.5058L15.2506 13.5ZM8.75228 15H15.2506C15.3689 15 15.4681 15.0822 15.494 15.1927L15.5006 15.25V17.2471C15.5006 17.3654 15.4183 17.4646 15.3079 17.4905L15.2506 17.4971H8.75228C8.63393 17.4971 8.53479 17.4149 8.50888 17.3044L8.50228 17.2471V15.25C8.50228 15.1317 8.58451 15.0325 8.69496 15.0066L8.75228 15H15.2506H8.75228ZM13.25 9.5H10.75L10.6482 9.50685C10.2822 9.55651 10 9.8703 10 10.25C10 10.6297 10.2822 10.9435 10.6482 10.9932L10.75 11H13.25L13.3518 10.9932C13.7178 10.9435 14 10.6297 14 10.25C14 9.8703 13.7178 9.55651 13.3518 9.50685L13.25 9.5ZM13.253 3.5H10.7475C10.3678 3.5 10.0541 3.78215 10.0044 4.14823L9.99754 4.25L9.997 4.5H14.003V4.25C14.003 3.8703 13.7209 3.55651 13.3548 3.50685L13.253 3.5Z" fill="#1963D1"/>
</svg>
