<svg width="32" height="32" viewBox="0 0 32 32" fill="none" xmlns="http://www.w3.org/2000/svg">
<path d="M14.3297 2.66699H17.6704C19.2582 2.66699 20.5579 3.90054 20.6635 5.46159L20.6704 5.66699L20.6703 6.00033H22.3268C24.7201 6.00033 26.6602 7.94042 26.6602 10.3337V26.3398C26.6602 27.9966 25.317 29.3398 23.6602 29.3398H8.33301C6.67615 29.3398 5.33301 27.9966 5.33301 26.3398V10.3337C5.33301 7.94042 7.27311 6.00033 9.66634 6.00033H11.329L11.3297 5.66699C11.3297 4.07917 12.5633 2.77947 14.1243 2.67391L14.3297 2.66699ZM20.3338 18.0003H11.6694C10.4451 18.0003 9.44112 18.9431 9.34378 20.1423L9.33605 20.3337V22.9964C9.33605 24.2207 10.2789 25.2247 11.478 25.322L11.6694 25.3298H20.3338C21.558 25.3298 22.562 24.387 22.6594 23.1878L22.6671 22.9964V20.3337C22.6671 19.1094 21.7243 18.1054 20.5252 18.0081L20.3338 18.0003ZM11.6694 20.0003H20.3338C20.4916 20.0003 20.6238 20.11 20.6583 20.2572L20.6671 20.3337V22.9964C20.6671 23.1542 20.5575 23.2864 20.4102 23.321L20.3338 23.3298H11.6694C11.5116 23.3298 11.3794 23.2201 11.3449 23.0729L11.336 22.9964V20.3337C11.336 20.1759 11.4457 20.0437 11.5929 20.0091L11.6694 20.0003H20.3338H11.6694ZM17.6663 12.667H14.333L14.1973 12.6761C13.7092 12.7423 13.333 13.1607 13.333 13.667C13.333 14.1733 13.7092 14.5916 14.1973 14.6579L14.333 14.667H17.6663L17.802 14.6579C18.2901 14.5916 18.6663 14.1733 18.6663 13.667C18.6663 13.1607 18.2901 12.7423 17.802 12.6761L17.6663 12.667ZM17.6704 4.66699H14.3297C13.8235 4.66699 13.4051 5.0432 13.3389 5.5313L13.3297 5.66699L13.329 6.00033H18.6704V5.66699C18.6704 5.16073 18.2942 4.74234 17.8061 4.67612L17.6704 4.66699Z" fill="#1963D1"/>
</svg>
