<svg width="16" height="16" viewBox="0 0 16 16" fill="none" xmlns="http://www.w3.org/2000/svg">
<path d="M8.00016 1.33301C11.6821 1.33301 14.6668 4.31778 14.6668 7.99967C14.6668 11.6816 11.6821 14.6663 8.00016 14.6663C4.31826 14.6663 1.3335 11.6816 1.3335 7.99967C1.3335 4.31778 4.31826 1.33301 8.00016 1.33301ZM10.1466 5.97945L7.16683 8.95923L5.85372 7.64612C5.65845 7.45086 5.34187 7.45086 5.14661 7.64612C4.95135 7.84138 4.95135 8.15797 5.14661 8.35323L6.81328 10.0199C7.00854 10.2152 7.32512 10.2152 7.52038 10.0199L10.8537 6.68656C11.049 6.4913 11.049 6.17472 10.8537 5.97945C10.6585 5.78419 10.3419 5.78419 10.1466 5.97945Z" fill="#4BB34B"/>
</svg>
