<svg width="20" height="20" viewBox="0 0 20 20" fill="none" xmlns="http://www.w3.org/2000/svg">
<path d="M8.33301 2.08301C11.7848 2.08301 14.583 4.88123 14.583 8.33301C14.583 9.75813 14.106 11.0719 13.303 12.1232L17.2556 16.0771C17.581 16.4025 17.581 16.9302 17.2556 17.2556C16.9552 17.556 16.4825 17.5791 16.1556 17.3249L16.0771 17.2556L12.1232 13.303C11.0719 14.106 9.75813 14.583 8.33301 14.583C4.88123 14.583 2.08301 11.7848 2.08301 8.33301C2.08301 4.88123 4.88123 2.08301 8.33301 2.08301ZM8.33301 3.74967C5.8017 3.74967 3.74967 5.8017 3.74967 8.33301C3.74967 10.8643 5.8017 12.9163 8.33301 12.9163C10.8643 12.9163 12.9163 10.8643 12.9163 8.33301C12.9163 5.8017 10.8643 3.74967 8.33301 3.74967Z" fill="#6B778C"/>
</svg>
